<?xml version="1.0" encoding="UTF-8"?>
<svg id="Layer_1" data-name="Layer 1" xmlns="http://www.w3.org/2000/svg" version="1.1" viewBox="0 0 170 50">
  <defs>
    <style>
      .cls-1 {
        fill: #8c4746;
      }

      .cls-1, .cls-2, .cls-3, .cls-4, .cls-5, .cls-6, .cls-7, .cls-8, .cls-9, .cls-10, .cls-11, .cls-12 {
        stroke-width: 0px;
      }

      .cls-2 {
        fill: #ac6a61;
      }

      .cls-3 {
        fill: #060606;
      }

      .cls-4 {
        fill: #090808;
      }

      .cls-5 {
        fill: #59a568;
      }

      .cls-6 {
        fill: #150f0e;
      }

      .cls-7 {
        fill: #57a69c;
      }

      .cls-8 {
        fill: #de9d80;
      }

      .cls-9 {
        fill: #ac6960;
      }

      .cls-10 {
        fill: #58a69d;
      }

      .cls-11 {
        fill: #e4a082;
      }

      .cls-12 {
        fill: #56a265;
      }
    </style>
  </defs>
  <g>
    <path class="cls-3" d="M53.96,43.44s-.07-.08-.11-.12c-.24-.22-.52-.4-.79-.58-.14-.09-.29-.14-.46-.17-.44-.07-.89-.04-1.37-.08.02-.31.03-.6.05-.9.06-.85.14-1.69.18-2.54.05-1.17-.02-2.33.06-3.5.05-.71.03-1.42.03-2.13,0-.19.06-.27.22-.34.3-.13.5-.37.66-.66.28-.53.42-1.09.44-1.69.02-.62-.01-1.24-.07-1.86-.14-1.45-.44-2.86-.93-4.24-.43-1.22-1.04-2.36-1.86-3.37-.63-.79-1.39-1.45-2.27-1.97-.17-.1-.28-.22-.36-.4-.31-.67-.66-1.33-1.03-1.97-.89-1.56-1.94-3.01-3.21-4.28-1.05-1.05-2.2-1.96-3.41-2.81-1.04-.74-2.09-1.46-3.26-2-.74-.34-1.49-.68-2.32-.73-.04,0-.08,0-.13-.01-.12,0-.24,0-.36,0-.06,0-.11,0-.15.02,0,0,0,0,0,0,0,0,0,0,0,0,0,0-.01,0-.02,0-.03.01-.06.02-.09.03-.02,0-.05.02-.07.02-.01,0-.02.01-.04.02-.84.27-1.64.66-2.42,1.07-2.7,1.42-4.99,3.36-7.03,5.61-3.15,3.45-5.34,7.45-6.74,11.89-.89,2.82-1.47,5.69-1.58,8.66,0,.04-.01.09-.02.13-.05.48-.06.96,0,1.44.08.76.13,1.52.16,2.28.02.73.07,1.46.13,2.19.06.78.14,1.56.26,2.34.02.13-.02.18-.14.19-.66.05-1.31.22-1.98.17-.19-.01-.32.06-.38.24-.03.08-.07.16-.09.25-.08.29-.02.4.27.48.12.03.23.06.35.06.45,0,.89,0,1.34-.04.67-.06,1.33-.06,2,0,1.83.16,3.66.19,5.5.22.92.01,1.84.05,2.75.12,1.39.11,2.79.16,4.19.24.77.05,1.55.09,2.32.14.12,0,.23.05.34.1.83.38,1.69.63,2.58.83.46.1.89.08,1.3-.14.16-.09.31-.18.48-.24.04-.02.08-.04.12-.05.27-.07.55-.12.83-.14.26-.05.53-.05.8-.03.05,0,.11.01.16.01,1.67-.03,3.34-.07,5-.16,1.48-.08,2.96-.21,4.44-.31,1.09-.07,2.18-.14,3.27-.07.48.03.94.01,1.39-.14.35-.12.7-.24,1-.47.24-.19.26-.32.07-.58ZM44.36,17.5c.05-.26.1-.51.12-.77.03-.41.01-.82-.08-1.23h0s-.01-.03-.02-.04c.01,0,.02.02.04.03l.06.06c.5.79.97,1.59,1.37,2.44.05.1.09.19.13.29-.09.07-.16,0-.22-.02-.38-.14-.76-.26-1.15-.36-.31-.08-.31-.09-.25-.39ZM33.95,7.51c.99.19,1.91.58,2.78,1.08,1.65.95,3.16,2.11,4.59,3.37.94.83,1.78,1.74,2.53,2.74.04.05.09.1.1.19-.04,0-.07.02-.08.01-.55-.31-1.12-.23-1.69-.07-.8.23-1.45.69-2.05,1.25-.38.36-.72.76-1.02,1.2-.09.13-.18.19-.34.2-.66.05-1.33.12-1.97.29-.13.04-.22,0-.29-.13-1.02-1.75-1.84-3.57-2.26-5.56-.11-.49-.17-.99-.26-1.48-.05-.29.03-.56.08-.84.11-.74.12-1.47-.12-2.19,0-.02,0-.04.01-.07ZM43.19,17.38c-.01-.1-.01-.2-.03-.29-.08-.45-.41-.71-.86-.68-.39.02-.75.15-1.06.4-.16.13-.33.26-.46.42-.14.17-.3.23-.51.21-.19-.01-.38,0-.57,0-.03-.07,0-.1.03-.13.63-.77,1.37-1.41,2.31-1.79.39-.16.79-.25,1.22-.17.43.09.58.24.64.66.07.53-.05,1.04-.17,1.55,0,.04-.03.09-.08.09-.13.01-.26,0-.38-.05-.1-.05-.06-.15-.07-.23ZM42.56,17.47c-.03.05-.09.05-.15.05-.3-.03-.6-.07-.95-.11.29-.25.56-.39.89-.36.18.02.3.27.2.42ZM33.62,11.73c.22,1.71.86,3.28,1.62,4.88-1.42-1.35-2.59-.9-3.39.07.57-1.65,1.2-3.29,1.77-4.95ZM29.17,42.58c-.34,0-.68,0-1.03,0-1.4,0-2.8-.03-4.19.02-1.1.04-2.2.11-3.3.15-.79.03-1.57.03-2.36.05-.21,0-.41.01-.62.03-.16.01-.22-.06-.22-.21,0-.29-.02-.59-.05-.88-.11-1.51-.31-3.02-.36-4.53-.04-1.19-.11-2.38-.04-3.57.07-1.23.22-2.45.43-3.67.29-1.74.73-3.43,1.29-5.1,1.15-3.41,2.86-6.51,5.12-9.31,1.58-1.95,3.35-3.72,5.35-5.24,1.17-.89,2.41-1.66,3.71-2.34.06-.03.12-.06.2-.1.14.44.16.85.12,1.26-.1,1.02-.41,1.98-.75,2.94-.84,2.33-1.71,4.65-2.54,6.99-.72,2.03-1.3,4.1-1.71,6.21-.3,1.57-.54,3.16-.68,4.76-.07.8-.1,1.61-.14,2.42-.1,2.14.12,4.25.55,6.34.25,1.2.62,2.36,1.15,3.47.04.08.12.16.07.31ZM30.75,20.28q0,.28-.32.45c.07-.33.16-.61.32-.89,0,.15,0,.29,0,.44ZM46,41.87c-.02.23-.02.46-.02.69,0,.26,0,.27-.27.28-1.18.06-2.35.11-3.53.12-.96,0-1.92.01-2.88.01-.07,0-.15.02-.24-.06.07-.07.12-.13.17-.18.05-.05.1-.12.07-.17-.09-.2-.07-.42-.28-.6-.42-.35-.89-.53-1.43-.58-.48-.04-.95-.13-1.43-.14-.26,0-.27-.03-.23-.29.2-1.1.33-2.2.35-3.31,0-.45.05-.89,0-1.34,0-.08,0-.15.03-.22.32-.72.86-1.21,1.58-1.48.21-.08.45-.05.68-.08,1.43-.23,2.86-.49,4.3-.65.79-.09,1.58-.18,2.38-.22.25-.01.26,0,.3.23.13.71.23,1.42.28,2.14.07.93.15,1.87.18,2.81.04,1.01.07,2.03-.03,3.04ZM50.47,34.59c-.04.36-.02.72-.03,1.08-.02,1.05-.14,2.09-.24,3.13-.07.72-.17,1.45-.1,2.19.04.38-.08.76-.07,1.14,0,.4,0,.41-.4.44-.85.07-1.7.13-2.55.19-.05,0-.11,0-.16,0-.12.01-.15-.05-.15-.16.02-.56-.04-1.11-.07-1.67-.07-1.33-.04-2.66-.08-3.99-.03-1.06-.16-2.11-.35-3.15,0-.05-.01-.11-.03-.2.73-.03,1.43-.05,2.13-.07.58-.02,1.16-.05,1.73-.07.24,0,.25,0,.3.23.05.3.1.6.06.91ZM50.42,31.74c-.42.26-.88.32-1.37.35-1.08.08-2.16.02-3.23.12-.1,0-.2,0-.29,0-1.46.11-2.91.26-4.36.47-.84.13-1.68.27-2.52.4-.53.08-1.06.11-1.58.23-.33.08-.65.17-.97.3-.28.11-.56.19-.82.38-.38.28-.62.64-.7,1.1-.02.12-.03.24,0,.36.25.76.28,1.54.27,2.33-.02,1.06-.14,2.11-.34,3.15,0,.12-.03.23-.17.29-.22.09-.26.31-.29.51-.03.23.02.28.26.32.39.06.77.13,1.17.25-.1.27-.19.54-.28.8-.05.14-.14.15-.26.12-.16-.04-.32-.06-.49-.07-.19,0-.32.06-.39.24-.05.13-.1.26-.15.4-.07.19-.09.2-.29.13-.38-.14-.73-.35-1.1-.51-.35-.15-.62-.4-.85-.69-.15-.2-.24-.44-.35-.66-.63-1.33-1.18-2.7-1.51-4.14-.13-.56-.27-1.12-.49-1.66-.1-.25-.24-.44-.47-.56-.19-.1-.24-.25-.26-.45-.17-1.73-.13-3.47.02-5.2.21-2.47.58-4.92,1.22-7.32.09-.33.19-.65.26-.98.03-.14.1-.23.23-.29.15-.08.29-.18.47-.3.13.57.35,1.08.65,1.54.31.47.7.86,1.17,1.21.04-.16-.05-.23-.11-.31-.48-.74-.81-1.54-1.01-2.4-.3-1.34-.06-2.58.63-3.75.16-.26.35-.5.59-.7.48-.41.98-.47,1.55-.17.42.22.76.55,1.06.91.81.94,1.33,2.01,1.49,3.26.02.12-.01.26.1.39.12-.07.13-.19.14-.3.04-.41-.02-.8-.11-1.2-.1-.42-.28-.8-.45-1.21.27-.14.55-.18.82-.22.77-.11,1.53-.24,2.31-.22.61.01,1.22-.1,1.83-.07.33.01.65,0,.97.13.07.03.15.01.23.02.1,0,.2,0,.29.03.59.23,1.22.3,1.83.49,1.19.38,2.28.94,3.27,1.7.1.08.22.15.29.26.75.62,1.35,1.36,1.84,2.19.47.8.81,1.67,1.06,2.56.02.06.05.12,0,.22-.37-.34-.84-.52-1.22-.88-.53-.5-1.18-.77-1.89-.93-.16-.04-.33-.02-.49-.01-.41.03-.57.28-.39.65.2.42.52.75.9,1.02.41.3.84.55,1.35.64.07.01.16.04.23.02.21-.07.35.03.51.14.68.46,1.15,1.09,1.48,1.83.06.13.07.27.08.42.01.36,0,.39-.35.38-.84-.02-1.68-.04-2.48-.32-.43-.15-.84-.32-1.12-.71-.03-.04-.08-.08-.12-.1-.08-.05-.14-.03-.18.07-.1.22-.03.41.12.57.31.34.71.54,1.13.7.76.29,1.56.42,2.37.41.19,0,.37,0,.56,0,.12,0,.16.06.13.17-.22.9-.63,1.67-1.45,2.17Z"/>
    <path class="cls-10" d="M33.11,7.89c.14.44.16.85.12,1.26-.1,1.02-.41,1.98-.75,2.94-.84,2.33-1.71,4.65-2.54,6.99-.72,2.03-1.3,4.1-1.71,6.21-.3,1.57-.54,3.16-.68,4.76-.07.8-.1,1.61-.14,2.42-.1,2.14.12,4.25.55,6.34.25,1.2.62,2.36,1.15,3.47.04.08.12.16.07.31-.34,0-.68,0-1.03,0-1.4,0-2.8-.03-4.19.02-1.1.04-2.2.11-3.3.15-.79.03-1.57.03-2.36.05-.21,0-.41.01-.62.03-.16.01-.22-.06-.22-.21,0-.29-.02-.59-.05-.88-.11-1.51-.31-3.02-.36-4.53-.04-1.19-.11-2.38-.04-3.57.07-1.23.22-2.45.43-3.67.29-1.74.73-3.43,1.29-5.1,1.15-3.41,2.86-6.51,5.12-9.31,1.58-1.95,3.35-3.72,5.35-5.24,1.17-.89,2.41-1.66,3.71-2.34.06-.03.12-.06.2-.1Z"/>
    <path class="cls-11" d="M31.67,42.71c-.15-.2-.24-.44-.35-.66-.63-1.33-1.18-2.7-1.51-4.14-.13-.56-.27-1.12-.49-1.66-.1-.25-.24-.44-.47-.56-.19-.1-.24-.25-.26-.45-.17-1.73-.13-3.47.02-5.2.21-2.47.58-4.92,1.22-7.32.09-.33.19-.65.26-.98.03-.14.1-.23.23-.29.15-.08.29-.18.47-.3.13.57.35,1.08.65,1.54.31.47.7.86,1.17,1.21.04-.16-.05-.23-.11-.31-.48-.74-.81-1.54-1.01-2.4-.3-1.34-.06-2.58.63-3.75.16-.26.35-.5.59-.7.48-.41.98-.47,1.55-.17.42.22.76.55,1.06.91.81.94,1.33,2.01,1.49,3.26.02.12-.01.26.1.39.12-.07.13-.19.14-.3.04-.41-.02-.8-.11-1.2-.1-.42-.28-.8-.45-1.21.27-.14.55-.18.82-.22.77-.11,1.53-.24,2.31-.22.61.01,1.22-.1,1.83-.07.33.01.65,0,.97.13.07.03.15.01.23.02.1,0,.2,0,.29.03.59.23,1.22.3,1.83.49,1.19.38,2.28.94,3.27,1.7.1.08.22.15.29.26-.44.22-.82.54-1.17.88-.26.26-.5.54-.68.87-.26.48-.49.98-.68,1.48-.14.37-.33.74-.37,1.15-.09,0-.16-.02-.24-.06-.5-.21-1.01-.4-1.55-.49-.08-.01-.15-.05-.2.05.06.07.14.08.22.1.48.18.95.37,1.41.59.1.05.21.07.27.18-.11.13-.13.29-.16.45-.07.29-.14.59-.2.88-.15-.01-.3-.02-.45-.03-.28-.03-.56-.02-.85-.01-.05,0-.09.04-.1.08,0,.04.03.08.08.09.06.01.13.02.19.03.36.06.74.07,1.09.18-.05.39-.11.79-.09,1.19-.24.04-.49.08-.73.13-.13.02-.26.05-.37.1-.09.04-.18.12-.14.22.04.1.14.05.23.04.32-.03.64-.12.97-.09,0,.32.03.63.06.94.07.9.2,1.79.63,2.6.02.04.02.08.03.12-1.46.11-2.91.26-4.36.47-.84.13-1.68.27-2.52.4-.53.08-1.06.11-1.58.23-.33.08-.65.17-.97.3-.28.11-.56.19-.82.38-.38.28-.62.64-.7,1.1-.02.12-.03.24,0,.36.25.76.28,1.54.27,2.33-.02,1.06-.14,2.11-.34,3.15-.58.02-1.1.22-1.61.47-.51.25-.88.63-1.09,1.16-.02.06-.04.13-.12.15ZM35.42,20.1c0-.55,0-1.05-.19-1.52-.22-.57-.66-.95-1.28-.98-.62-.04-1.15.2-1.45.81-.1.2-.18.4-.23.61-.08.35-.1.71-.09,1.07.02.78.17,1.54.56,2.23.11.2.26.35.45.47.08.05.17.09.23,0,.06-.09.12-.21-.01-.29-.23-.14-.28-.38-.35-.61-.16-.5-.22-1.02-.25-1.54-.03-.39.01-.79.12-1.17.11-.38.34-.67.75-.74.39-.07.67.12.89.43.21.29.41.59.59.9.06.1.09.22.26.32ZM40.15,22.05c0-.16-.02-.28-.1-.4-.23-.33-.58-.28-.95-.06-.1.06-.17.14-.2.25-.09.44,0,.84.33,1.17.21.2.37.19.55-.03.22-.28.34-.6.37-.93Z"/>
    <path class="cls-5" d="M39.05,42.92c.07-.07.12-.13.17-.18.05-.05.1-.12.07-.17-.09-.2-.07-.42-.28-.6-.42-.35-.89-.53-1.43-.58-.48-.04-.95-.13-1.43-.14-.26,0-.27-.03-.23-.29.2-1.1.33-2.2.35-3.31,0-.45.05-.89,0-1.34,0-.08,0-.15.03-.22.32-.72.86-1.21,1.58-1.48.21-.08.45-.05.68-.08,1.43-.23,2.86-.49,4.3-.65.79-.09,1.58-.18,2.38-.22.25-.01.26,0,.3.23.13.71.23,1.42.28,2.14.07.93.15,1.87.18,2.81.04,1.01.07,2.03-.03,3.04-.02.23-.02.46-.02.69,0,.26,0,.27-.27.28-1.18.06-2.35.11-3.53.12-.96,0-1.92.01-2.88.01-.07,0-.15.02-.24-.06Z"/>
    <path class="cls-7" d="M43.95,14.89s-.07.02-.08.01c-.55-.31-1.12-.23-1.69-.07-.8.23-1.45.69-2.05,1.25-.38.36-.72.76-1.02,1.2-.09.13-.18.19-.34.2-.66.05-1.33.12-1.97.29-.13.04-.22,0-.29-.13-1.02-1.75-1.84-3.57-2.26-5.56-.11-.49-.17-.99-.26-1.48-.05-.29.03-.56.08-.84.11-.74.12-1.47-.12-2.19,0-.02,0-.04.01-.07.99.19,1.91.58,2.78,1.08,1.65.95,3.16,2.11,4.59,3.37.94.83,1.78,1.74,2.53,2.74.04.05.09.1.1.19Z"/>
    <path class="cls-1" d="M45.44,24.93c.04-.41.22-.77.37-1.15.19-.51.42-1,.68-1.48.18-.33.42-.61.68-.87.35-.34.72-.66,1.17-.88.75.62,1.35,1.36,1.84,2.19.47.8.81,1.67,1.06,2.56.02.06.05.12,0,.22-.37-.34-.84-.52-1.22-.88-.53-.5-1.18-.77-1.89-.93-.16-.04-.33-.02-.49-.01-.41.03-.57.28-.39.65.2.42.52.75.9,1.02.41.3.84.55,1.35.64.07.01.16.04.23.02.21-.07.35.03.51.14.68.46,1.15,1.09,1.48,1.83.06.13.07.27.08.42.01.36,0,.39-.35.38-.84-.02-1.68-.04-2.48-.32-.43-.15-.84-.32-1.12-.71-.03-.04-.08-.08-.12-.1-.08-.05-.14-.03-.18.07-.1.22-.03.41.12.57.31.34.71.54,1.13.7.76.29,1.56.42,2.37.41.19,0,.37,0,.56,0,.12,0,.16.06.13.17-.22.9-.63,1.67-1.45,2.17-.42.26-.88.32-1.37.35-1.08.08-2.16.02-3.23.12-.1,0-.2,0-.29,0,0-.04-.01-.09-.03-.12-.43-.81-.56-1.7-.63-2.6-.02-.31-.06-.63-.06-.94.69-.09,1.39-.07,2.07-.28-.5-.14-1.01-.21-1.52-.15-.16.02-.32.04-.49.03-.02-.4.05-.79.09-1.19.37.06.75.12,1.12.17.22.03.43.04.65,0-.54-.33-1.13-.42-1.73-.49.07-.29.13-.59.2-.88.04-.16.05-.32.16-.45.4.1.77.3,1.16.42.07.02.15.08.24.02-.07-.12-.17-.16-.26-.22-.33-.23-.7-.4-1.05-.6Z"/>
    <path class="cls-7" d="M46.25,33.6c.73-.03,1.43-.05,2.13-.07.58-.02,1.16-.05,1.73-.07.24,0,.25,0,.3.23.05.3.1.6.06.91-.04.36-.02.72-.03,1.08-.02,1.05-.14,2.09-.24,3.13-.07.72-.17,1.45-.1,2.19.04.38-.08.76-.07,1.14,0,.4,0,.41-.4.44-.85.07-1.7.13-2.55.19-.05,0-.11,0-.16,0-.12.01-.15-.05-.15-.16.02-.56-.04-1.11-.07-1.67-.07-1.33-.04-2.66-.08-3.99-.03-1.06-.16-2.11-.35-3.15,0-.05-.01-.11-.03-.2Z"/>
    <path class="cls-1" d="M31.67,42.71c.07-.02.09-.09.12-.15.21-.53.58-.91,1.09-1.16.51-.26,1.04-.45,1.61-.47,0,.12-.03.23-.17.29-.22.09-.26.31-.29.51-.03.23.02.28.26.32.39.06.77.13,1.17.25-.1.27-.19.54-.28.8-.05.14-.14.15-.26.12-.16-.04-.32-.06-.49-.07-.19,0-.32.06-.39.24-.05.13-.1.26-.15.4-.07.19-.09.2-.29.13-.38-.14-.73-.35-1.1-.51-.35-.15-.62-.4-.85-.69Z"/>
    <path class="cls-12" d="M31.85,16.68c.57-1.65,1.2-3.29,1.77-4.95.22,1.71.86,3.28,1.62,4.88-1.42-1.35-2.59-.9-3.39.07Z"/>
    <path class="cls-8" d="M39.71,17.43c-.03-.07,0-.1.03-.13.63-.77,1.37-1.41,2.31-1.79.39-.16.79-.25,1.22-.17.43.09.58.24.64.66.07.53-.05,1.04-.17,1.55,0,.04-.03.09-.08.09-.13.01-.26,0-.38-.05-.1-.05-.06-.15-.07-.23-.01-.1-.01-.2-.03-.29-.08-.45-.41-.71-.86-.68-.39.02-.75.15-1.06.4-.16.13-.33.26-.46.42-.14.17-.3.23-.51.21-.19-.01-.38,0-.57,0Z"/>
    <path class="cls-7" d="M44.47,15.55c.5.79.97,1.59,1.37,2.44.05.1.09.19.13.29-.09.07-.16,0-.22-.02-.38-.14-.76-.26-1.15-.36-.31-.08-.31-.09-.25-.39.05-.26.1-.51.12-.77.03-.41.01-.82-.08-1.23.03.02.05.03.08.05Z"/>
    <path class="cls-8" d="M41.47,17.41c.29-.25.56-.39.89-.36.18.02.3.27.2.42-.03.05-.09.05-.15.05-.3-.03-.6-.07-.95-.11Z"/>
    <path class="cls-12" d="M30.75,19.85c0,.15,0,.29,0,.44q0,.28-.32.45c.07-.33.16-.61.32-.89Z"/>
    <path class="cls-6" d="M44.39,15.5s-.01-.02-.02-.04c.01,0,.02.02.04.03,0,0-.02.01-.02.01Z"/>
    <path class="cls-6" d="M44.47,15.55s-.05-.03-.08-.05c0,0,0,0,0,0s.02-.01.02-.01c.02.02.04.04.06.06Z"/>
    <path class="cls-4" d="M35.42,20.1c-.17-.1-.2-.22-.26-.32-.18-.31-.38-.61-.59-.9-.22-.31-.5-.5-.89-.43-.41.08-.64.36-.75.74-.11.38-.15.77-.12,1.17.04.52.1,1.04.25,1.54.07.22.11.47.35.61.13.08.07.2.01.29-.06.09-.15.05-.23,0-.19-.12-.34-.27-.45-.47-.39-.69-.54-1.45-.56-2.23-.01-.36,0-.72.09-1.07.05-.21.13-.42.23-.61.3-.6.83-.84,1.45-.81.61.04,1.05.41,1.28.98.18.47.2.97.19,1.52Z"/>
    <path class="cls-3" d="M40.15,22.05c-.03.32-.15.65-.37.93-.18.23-.34.24-.55.03-.33-.32-.42-.72-.33-1.17.02-.11.1-.19.2-.25.37-.22.72-.27.95.06.08.12.1.24.1.4Z"/>
    <path class="cls-6" d="M44.86,28.14c.16,0,.32,0,.49-.03.52-.06,1.02,0,1.52.15-.68.2-1.38.18-2.07.28-.33-.02-.64.06-.97.09-.08,0-.19.06-.23-.04-.04-.11.05-.19.14-.22.12-.05.25-.07.37-.1.24-.05.49-.09.73-.13Z"/>
    <path class="cls-6" d="M45.44,24.93c.35.2.72.36,1.05.6.09.06.19.1.26.22-.09.05-.16,0-.24-.02-.39-.12-.76-.32-1.16-.42-.06-.1-.17-.13-.27-.18-.46-.22-.94-.41-1.41-.59-.08-.03-.16-.03-.22-.1.05-.1.12-.07.2-.05.54.09,1.05.28,1.55.49.08.04.16.06.24.06Z"/>
    <path class="cls-6" d="M44.99,26.63c.6.08,1.2.16,1.73.49-.22.04-.43.04-.65,0-.37-.06-.75-.12-1.12-.17-.36-.11-.73-.12-1.09-.18-.06-.01-.13-.02-.19-.03-.05,0-.09-.04-.08-.09,0-.04.05-.07.1-.08.28,0,.56-.02.85.01.15.02.3.02.45.03Z"/>
  </g>
  <path class="cls-9" d="M115.13,30c-1.96,0-2.24-.21-2.69-1.93-.17-.66-.24-1.33-.28-2-.09-1.39-.11-2.79-.19-4.18-.07-1.23-.15-2.46-.33-3.68-.23-1.48.02-1.99,1.41-2.55,2.05-.83,3.96-.61,5.6.98.49.47.93.97,1.19,1.61.24.6.24,1.17-.03,1.76-.33.7-.74,1.34-1.24,1.93-.3.35-.28.4.13.58.34.15.68.3,1.01.47,1.52.79,1.97,2.31,1.15,3.82-.41.75-.99,1.34-1.66,1.85-1.26.94-2.66,1.41-4.05,1.33ZM114.2,25.25c-.03.72.13,1.43.19,2.14.02.28.12.48.46.49,1.56.05,2.84-.53,3.86-1.7.14-.16.23-.34.3-.54.12-.34.05-.59-.27-.76-.18-.1-.37-.2-.56-.27-1.07-.4-2.19-.58-3.33-.63-.63-.03-.64,0-.65.66,0,.21,0,.42,0,.63ZM115.3,17.32c-.31-.02-.61.05-.9.11-.59.12-.66.21-.61.79.07.95.21,1.9.23,2.85.01.63.22.73.85.62,1.42-.24,2.28-1.16,2.89-2.39.09-.18.08-.37-.05-.53-.63-.78-1.34-1.42-2.42-1.46Z"/>
  <path class="cls-9" d="M138.58,16.95c.62,0,1.11-.02,1.6.07.79.15,1.42.54,1.84,1.25.73,1.21.7,2.9-.08,3.96-.44.6-1.02,1-1.74,1.21-.37.1-.4.23-.17.47.93.94,1.79,1.95,2.78,2.83.33.3.69.53,1.11.7.67.27.94.82.73,1.38-.22.59-.81.85-1.5.65-.84-.24-1.46-.81-2.07-1.38-.73-.68-1.44-1.39-2.08-2.16-.48-.58-1.1-1-1.71-1.43-.25-.18-.39-.11-.37.22.04.91.1,1.81.15,2.71.02.35.05.7-.09,1.03-.16.39-.41.68-.85.73-.35.04-.69-.23-.88-.68-.17-.41-.31-.84-.31-1.28,0-1-.11-2-.19-2.99-.1-1.23-.08-2.46-.23-3.68-.09-.67-.1-1.35.12-2,.28-.82.81-1.33,1.7-1.44.78-.1,1.56-.24,2.22-.19ZM138.58,19.09c-.49,0-.98-.03-1.46.07-.46.09-.55.18-.54.65.01.51.1,1.02.11,1.52.01.33.15.44.47.43.7-.02,1.38-.14,2.07-.28,1.08-.22,1.42-.86,1.06-1.89-.11-.32-.31-.51-.66-.51-.35,0-.7,0-1.04,0Z"/>
  <path class="cls-9" d="M150.61,25.52c-.56,0-1.12.02-1.67,0-.36-.02-.48.16-.54.48-.12.69-.26,1.37-.41,2.05-.14.67-.39.95-.83.95-.44,0-.67-.28-.84-.96-.22-.91-.06-1.8.06-2.7.4-2.89,1.36-5.64,2.05-8.47.07-.27.17-.54.3-.78.37-.7.95-.88,1.7-.64,1.38.45,2.09,1.53,2.56,2.77.75,1.98,1.18,4.06,1.69,6.11.22.9.45,1.8.7,2.7.06.22.19.42.29.63.09.19.2.37.26.57.18.56-.05,1.14-.53,1.37-.52.25-1.14.09-1.48-.41-.21-.31-.35-.66-.46-1.01-.19-.65-.37-1.3-.54-1.95-.2-.74-.2-.74-.93-.75-.47,0-.93,0-1.4,0v.03ZM150.38,17.98c-.21.32-.27.62-.33.9-.27,1.22-.58,2.43-.98,3.62-.08.24-.14.49-.18.74-.04.19.02.34.25.28.85-.2,1.71-.08,2.56-.12.49-.02.56-.09.45-.52-.33-1.3-.63-2.61-1.1-3.87-.14-.37-.28-.74-.67-1.03Z"/>
  <path class="cls-9" d="M123.2,27.27c.16-1.09.25-2.16.59-3.18.62-1.85,1.1-3.75,1.78-5.58.32-.87.5-1.78,1.02-2.58.55-.84,1.43-1.08,2.29-.56.43.26.74.63,1,1.05.61,1.02.87,2.15,1.09,3.29.12.59.23,1.19.34,1.78.08.39.18.75.48,1.06.24.25.3.58.13.91-.15.29-.11.58-.06.88.12.66.23,1.33.33,2,.02.16.04.33.03.49-.03.55-.39.97-.86,1.04-.49.08-.94-.18-1.16-.7-.18-.43-.22-.9-.3-1.36-.08-.46-.15-.92-.23-1.38-.05-.29-.21-.44-.53-.44-.91.01-1.82,0-2.69-.3-.23-.08-.34.06-.4.26-.2.64-.45,1.27-.54,1.95-.07.51-.18,1.01-.37,1.48-.1.24-.21.47-.35.68-.2.31-.48.53-.87.46-.39-.07-.57-.37-.64-.74-.04-.18-.05-.37-.07-.52ZM129.15,21.72c-.06-.37-.12-.64-.16-.91-.13-.87-.3-1.74-.59-2.57-.06-.16-.08-.41-.33-.38-.19.02-.21.24-.24.39-.17.85-.52,1.63-.81,2.44-.13.37-.24.75-.34,1.13-.05.17-.02.38.21.32.64-.15,1.29-.13,1.94-.16.22,0,.35-.11.33-.26Z"/>
  <path class="cls-9" d="M65,25.05c-.11-2.11.54-3.84,1.77-5.36,1.16-1.43,2.62-2.07,4.44-1.51,1.06.32,1.88,1,2.49,1.91.21.32.28.68.15,1.07-.13.41-.38.71-.8.79-.4.08-.74-.11-.96-.44-.27-.42-.63-.74-1.04-1.02-.77-.51-1.56-.46-2.23.17-1.05,1.01-1.64,2.24-1.68,3.71-.01.44,0,.88,0,1.33,0,.33.04.65.13.97.37,1.22,1,2.12,2.44,2.19,1.02.05,2,.05,2.9-.49.22-.13.45-.24.69-.33.46-.17.9-.07,1.15.25.29.37.29.77.1,1.18-.15.34-.45.53-.74.71-1.2.75-2.52.94-3.89.85-.46-.03-.92-.12-1.38-.2-1.16-.2-1.97-.87-2.58-1.85-.78-1.25-1.09-2.61-.98-3.93Z"/>
  <path class="cls-9" d="M76.4,28.53c.15-1.28.28-2.68.5-4.09.21-1.35.59-2.63,1.11-3.88.23-.55.5-1.07,1.17-1.16.7-.1,1.14.32,1.49.84.54.79,1.06,1.58,1.59,2.37.46.69.61,1.5.91,2.26.57,1.43.83,2.95,1.14,4.45.09.44.07.88-.32,1.22-.37.32-.81.35-1.21.05-.33-.25-.52-.59-.61-.99-.15-.66-.27-1.32-.42-1.98-.13-.57-.21-.65-.79-.68-.58-.03-1.16-.03-1.74-.02-.5,0-.56.05-.6.55-.05.74-.18,1.48-.3,2.21-.03.16-.06.32-.12.47-.13.35-.38.61-.77.62-.39,0-.65-.25-.77-.6-.17-.48-.25-.99-.25-1.64ZM79.56,22.46c-.28.66-.44,1.23-.52,1.83-.06.48,0,.53.45.54.25,0,.51,0,.76,0,.59-.01.64-.09.41-.65-.25-.6-.64-1.12-1.11-1.72Z"/>
  <path class="cls-9" d="M94.33,20.63c.13,1.56-.74,2.52-1.92,3.26-.61.38-1.28.66-1.99.82-.53.12-.56.16-.51.72.09,1.07.2,2.13.3,3.19.02.21.04.41,0,.62-.13.52-.42.81-.88.86-.46.05-.84-.18-1.05-.65-.18-.41-.23-.85-.27-1.29-.23-2.55-.43-5.1-.85-7.62-.05-.32-.03-.65-.05-.97-.05-.99.42-1.64,1.3-2.02,1.09-.46,2.22-.69,3.4-.6.86.07,1.51.49,1.9,1.24.39.77.72,1.57.62,2.44ZM90.98,19.1c-.43-.03-.86.12-1.31.25-.31.09-.48.27-.44.6.11.78.22,1.56.33,2.34.04.3.23.37.5.3.36-.09.7-.24,1.03-.4.94-.48,1.27-1.2,1.03-2.24-.17-.72-.35-.86-1.15-.85Z"/>
  <path class="cls-2" d="M98.09,17.44c.46,0,.79.24,1.09.55.7.71,1.39,1.44,2.16,2.08.52.43,1,.9,1.57,1.27.59.38.59.39,1.1-.14.65-.67,1.15-1.46,1.71-2.2.38-.5.74-1.01,1.2-1.45.23-.21.47-.38.78-.45.39-.08.75,0,1.01.32.27.33.34.71.11,1.1-.05.08-.08.17-.15.24-1.15,1.17-1.88,2.67-3.04,3.81-.65.64-.75,1.28-.59,2.13.16.84.15,1.71.19,2.57.03.7-.05,1.4.14,2.08.03.11.02.23.02.35-.02.51-.28.85-.74.98-.4.12-.9-.07-1.15-.46-.27-.42-.42-.89-.41-1.39.03-1.19-.08-2.37-.17-3.55-.03-.39-.1-.78-.16-1.17-.04-.25-.19-.41-.4-.54-1.77-1.14-3.27-2.61-4.71-4.13-.19-.21-.37-.42-.47-.69-.24-.65.21-1.31.9-1.32Z"/>
  <g>
    <path class="cls-11" d="M69.45,35.67s.04.09.04.13c0,.05-.03.11-.1.17-.06.07-.13.1-.19.1-.08,0-.15-.01-.2-.04-.05-.02-.09-.06-.12-.12-.07-.1-.15-.18-.24-.25-.09-.07-.24-.11-.44-.11-.17,0-.37.04-.59.12-.22.08-.38.17-.47.29-.08.1-.15.26-.21.47-.06.21-.09.41-.09.61,0,.24.05.46.16.65.1.2.26.36.45.48.2.12.44.18.72.18.15,0,.31-.03.47-.09.16-.06.3-.16.42-.29h0c.07-.08.17-.12.28-.12.07,0,.13.03.19.09.06.06.09.11.09.17,0,.06,0,.12-.03.16-.02.05-.05.1-.1.16-.17.19-.37.32-.6.39-.23.07-.5.1-.82.1-.28,0-.57-.07-.86-.2-.29-.14-.51-.3-.67-.49-.08-.12-.16-.29-.24-.51-.08-.22-.11-.4-.11-.54,0-.36.05-.69.16-1.02.11-.32.27-.58.49-.77.14-.13.35-.23.62-.29s.52-.1.74-.1c.27,0,.49.04.65.11s.31.21.47.4c.06.07.1.13.13.18Z"/>
    <path class="cls-11" d="M78.47,38.58c-.04-.08-.08-.19-.12-.3,0-.02-.03-.08-.07-.18-.04-.1-.08-.19-.13-.26-.26.04-.47.06-.63.06-.09,0-.19,0-.3,0-.11,0-.19,0-.24,0-.2-.02-.37-.02-.49-.02-.05.07-.09.14-.13.21-.03.07-.08.18-.13.33-.07.21-.14.36-.19.45-.04.06-.11.09-.21.09-.09,0-.17-.02-.25-.06-.08-.04-.11-.09-.11-.16.03-.16.08-.32.16-.49.07-.17.17-.41.31-.7l.25-.6c.14-.34.26-.64.37-.88.11-.25.26-.54.45-.87.02-.05.07-.09.12-.13.06-.03.12-.05.19-.05.08,0,.13,0,.17.02.03.01.06.03.08.05.02.02.05.07.09.14.14.22.26.44.36.67.1.23.23.55.38.95l.13.33c.11.29.21.54.3.74.08.2.18.38.28.54.07.11.1.18.1.22,0,.1-.03.17-.09.22-.06.05-.14.08-.23.08-.12,0-.21-.04-.27-.12-.05-.07-.1-.15-.14-.23ZM77.69,36.6c-.13-.37-.25-.66-.38-.88-.08.2-.19.45-.34.76-.1.19-.22.47-.35.83.26.03.54.05.85.05.22,0,.39-.01.51-.04-.07-.14-.16-.38-.28-.72Z"/>
    <path class="cls-11" d="M89.24,36.36c0,.11,0,.23-.01.38,0,.15,0,.32,0,.52,0,.64.03,1.1.1,1.38,0,.1-.04.17-.12.22-.07.04-.15.06-.23.06-.16,0-.27-.06-.32-.17-.05-.12-.08-.28-.08-.49,0-.79.01-1.52.04-2.19-.08.16-.15.33-.22.51-.07.19-.16.45-.27.78-.11.36-.21.64-.29.85-.08.21-.16.37-.25.49-.02.01-.07.04-.14.07-.07.03-.13.05-.19.05-.09,0-.15-.01-.18-.04-.04-.03-.07-.07-.1-.12-.03-.05-.05-.1-.07-.13-.07-.1-.15-.26-.25-.48-.1-.23-.2-.46-.28-.71-.03-.09-.06-.17-.09-.25-.03-.08-.05-.15-.08-.22-.05-.15-.1-.29-.14-.41s-.09-.22-.12-.27c0,.22,0,.43-.02.65,0,.26-.01.45-.01.56,0,.08,0,.19.01.33.02.43.04.71.04.84,0,.1-.02.18-.07.25s-.12.1-.23.1c-.11,0-.2-.02-.27-.06s-.1-.11-.11-.19c0-.07,0-.18,0-.34,0-.32-.01-.82-.04-1.5v-.22c0-.16,0-.38.02-.66,0-.07,0-.15.01-.25,0-.09,0-.2,0-.31,0-.13.04-.22.13-.28s.2-.09.33-.09c.08,0,.16.02.25.06.08.04.15.1.19.18.08.17.16.37.25.59.08.23.19.55.33.97.13.4.24.7.31.91.08.21.14.35.2.42l.14-.42c.46-1.41.77-2.25.93-2.5.04-.05.1-.09.19-.13.09-.04.18-.06.26-.06.06,0,.15.04.27.11.12.08.18.14.18.19,0,.25,0,.59-.02,1.03Z"/>
    <path class="cls-11" d="M96.94,37.49c-.11-.01-.25-.03-.43-.05,0,.18,0,.39-.01.64v.47c0,.11-.03.19-.09.25-.06.06-.12.09-.2.09-.14,0-.23-.02-.3-.05-.06-.03-.1-.1-.1-.19,0-.16,0-.33.02-.5.05-.43.07-.9.07-1.44,0-.37-.01-.72-.03-1.05-.07-.03-.13-.07-.18-.11-.05-.04-.08-.09-.08-.14,0-.11.04-.19.12-.26.08-.07.2-.1.36-.1.13,0,.29-.01.48-.03.05,0,.12-.01.23-.02s.21-.01.29-.01c.34,0,.6.03.78.1.19.07.37.17.56.33.2.32.31.54.31.68,0,.42-.12.76-.37,1.02-.25.26-.59.39-1.04.39-.16,0-.29,0-.4-.02ZM96.85,35.55c-.1.01-.22.04-.35.07.02.32.03.59.03.82,0,.18,0,.32-.02.44.18.04.31.06.41.07.1.01.21.02.34.02.3,0,.52-.08.64-.23.12-.16.19-.34.19-.55,0-.06-.02-.14-.05-.23-.03-.09-.07-.15-.1-.18-.11-.1-.22-.16-.33-.2-.11-.03-.25-.05-.43-.05-.13,0-.25,0-.35.02Z"/>
    <path class="cls-11" d="M107.22,35.67c-.13-.06-.27-.09-.44-.09-.34,0-.62.09-.87.26-.18.14-.32.31-.41.53-.09.22-.14.46-.14.73s.06.48.18.68c.12.19.27.34.46.45.19.1.38.15.59.15s.38-.03.53-.1c.15-.06.27-.15.36-.25.14-.18.21-.41.21-.7,0-.04-.03-.07-.1-.09-.07-.02-.16-.02-.28-.02h-.44c-.12,0-.21-.02-.28-.06-.07-.05-.1-.1-.1-.17,0-.1.03-.17.1-.22.07-.05.15-.07.26-.07.13,0,.31,0,.53.02.22.02.38.02.48.02.14,0,.26.04.35.14s.13.22.13.39c0,.16-.03.35-.1.56-.07.21-.17.4-.29.57-.12.16-.3.29-.54.37-.24.08-.5.13-.8.13-.24,0-.47-.04-.7-.12s-.41-.19-.56-.33c-.19-.18-.34-.39-.45-.63-.11-.24-.16-.49-.16-.73,0-.35.08-.69.25-1.03.17-.33.39-.59.67-.78.12-.08.29-.15.52-.2.22-.05.42-.08.61-.08.29,0,.54.04.76.13.22.09.38.21.5.38.05.07.07.14.07.2,0,.07-.03.13-.09.18-.06.06-.11.09-.17.09-.02,0-.05,0-.09-.01-.03,0-.06-.02-.07-.03-.18-.13-.33-.22-.45-.28Z"/>
    <path class="cls-11" d="M117.87,38.4c.04.05.06.11.06.17,0,.11-.04.19-.12.24-.08.06-.18.08-.31.08-.19,0-.34-.03-.45-.1-.11-.07-.22-.19-.31-.37-.03-.07-.06-.17-.1-.32-.04-.15-.07-.26-.11-.35-.04-.09-.1-.16-.19-.22-.09-.06-.21-.09-.36-.1h-.14c-.14.01-.24.02-.31.02-.08,0-.16,0-.23-.02,0,.54.01.95.01,1.24,0,.07-.04.14-.11.18s-.15.07-.24.07c-.11,0-.19-.04-.25-.12-.05-.1-.07-.24-.07-.44,0-.07,0-.16.01-.28v-.27c0-.25.02-.52.04-.8.02-.33.02-.57.02-.72,0-.13-.01-.3-.04-.51,0-.04-.01-.11-.02-.2,0-.09-.01-.18-.01-.25,0-.05.02-.1.07-.15.05-.04.09-.07.14-.09.34-.05.67-.08.99-.08.53,0,.97.1,1.31.3s.51.51.51.92c0,.12-.03.25-.1.38-.06.13-.14.24-.24.31-.16.14-.33.23-.52.27,0,0,.05.05.14.12.08.07.14.15.17.23l.08.25c.07.2.12.34.17.41.04.08.09.11.16.11.06,0,.1,0,.11-.01s.05-.01.1-.01c.06,0,.11.03.15.08ZM115.54,36.93c.07,0,.18,0,.31-.01h.29c.13,0,.26-.03.39-.09s.25-.14.34-.24c.09-.1.14-.22.14-.35,0-.23-.09-.4-.28-.51-.19-.11-.48-.16-.88-.16-.15,0-.33.02-.53.06,0,.15.01.25.01.32,0,.08,0,.19-.01.35v.18c-.02.17-.02.32-.02.45.12,0,.21.01.26.01Z"/>
    <path class="cls-11" d="M125.07,38.8c-.23-.07-.41-.17-.55-.3-.26-.23-.45-.49-.55-.76-.1-.28-.16-.63-.16-1.06,0-.09.01-.18.04-.25.03-.08.06-.17.11-.27.01-.03.03-.07.06-.14.03-.06.04-.12.05-.17.08-.14.21-.28.4-.41s.39-.24.6-.32.41-.12.57-.12c.79,0,1.35.27,1.69.81.19.32.29.63.29.95,0,.41-.07.78-.22,1.09-.15.31-.36.55-.62.72-.16.1-.33.18-.5.24-.17.06-.33.09-.47.09-.27,0-.52-.03-.74-.1ZM124.6,37.69c.1.15.26.3.48.48.16.06.28.1.34.12.07.02.14.03.21.03.27,0,.5-.06.71-.17.2-.11.36-.26.48-.45s.17-.41.17-.64c0-.31-.03-.56-.1-.74-.07-.18-.19-.34-.37-.48-.09-.08-.21-.14-.36-.17-.15-.04-.3-.06-.46-.06-.39,0-.7.14-.91.41-.22.28-.32.65-.32,1.11,0,.23.04.41.14.56Z"/>
    <path class="cls-11" d="M134.54,35.81v.4c0,.39.02.71.08.98.08.37.2.65.37.85.15.18.34.26.56.26.17,0,.33-.05.46-.16s.24-.23.31-.39c.12-.25.18-.57.18-.94,0-.23-.01-.49-.04-.8-.02-.34-.04-.6-.04-.77,0-.09.05-.15.16-.18.11-.03.22-.04.33-.04.04,0,.09.03.14.08s.08.11.08.17c0,.12,0,.24-.02.35,0,.12-.01.21-.01.26,0,.16,0,.37.02.65,0,.07,0,.15.01.25,0,.1,0,.21,0,.34,0,.28-.07.56-.2.83s-.32.5-.56.68-.51.27-.8.27c-.46,0-.82-.15-1.07-.45-.26-.3-.43-.68-.53-1.15-.05-.27-.09-.55-.1-.85-.01-.29-.02-.69-.02-1.19,0-.07.03-.13.1-.18.06-.06.13-.09.21-.09.26,0,.39.11.39.33,0,.12,0,.28-.01.47Z"/>
    <path class="cls-11" d="M146.15,35.14c.06-.09.14-.13.25-.13.09,0,.18.02.25.06.07.04.11.1.11.18,0,.17,0,.4-.02.71-.02.29-.02.51-.02.66,0,.23,0,.53.02.9.02.36.02.62.02.79,0,.14,0,.24,0,.3,0,.07-.04.13-.11.19s-.18.1-.33.1c-.08,0-.14-.01-.2-.04-.06-.03-.09-.06-.11-.09-.19-.23-.47-.63-.84-1.19-.41-.63-.75-1.11-1.01-1.44.03.29.05.66.05,1.08,0,.19,0,.43,0,.73,0,.3-.02.5-.03.59-.02.12-.05.21-.11.27-.06.06-.14.1-.26.1-.09,0-.16-.03-.2-.08-.04-.05-.07-.14-.08-.27,0-.17,0-.42.03-.76,0-.05.01-.15.02-.28,0-.13.01-.25.01-.35,0-.28-.01-.61-.04-.97-.02-.4-.04-.7-.04-.89,0-.1.04-.17.11-.23.07-.05.15-.08.25-.08.08,0,.17.02.26.06.35.44.83,1.1,1.43,1.98l.58.88c0-.07,0-.16,0-.28,0-.21,0-.43-.01-.68,0-.24-.01-.41-.02-.49-.02-.4-.03-.75-.03-1.05,0-.12.03-.22.08-.31Z"/>
    <path class="cls-11" d="M155.37,35.24c.33.15.57.32.74.51.14.16.25.33.33.54.09.2.13.45.13.73,0,.21-.05.43-.14.65-.09.23-.22.41-.37.55-.16.15-.31.27-.45.37-.14.09-.33.17-.57.23-.24.06-.54.09-.91.09-.28,0-.53-.03-.76-.1-.23-.06-.34-.17-.34-.32,0-.06.03-.11.08-.14s.12-.05.18-.05c.04,0,.06,0,.07,0,.03-.27.04-.56.04-.86,0-.34,0-.62-.02-.84-.02-.22-.04-.45-.07-.67,0-.03-.01-.11-.03-.24-.01-.13-.02-.26-.02-.4,0-.09.04-.16.13-.22.09-.06.17-.09.26-.09.05,0,.12,0,.21.01.07,0,.13.01.17.01.56,0,1,.08,1.32.23ZM154.36,38.35c.27,0,.53-.06.77-.17.24-.11.44-.27.58-.47.15-.2.22-.44.22-.7s-.05-.52-.15-.71c-.1-.2-.25-.36-.45-.49-.15-.09-.34-.16-.56-.21-.22-.04-.49-.06-.8-.06,0,.1,0,.22.02.37,0,.05,0,.14.01.26.02.47.04.86.04,1.15,0,.42-.02.76-.07,1.01.1.02.23.02.39.02Z"/>
  </g>
</svg>